<svg xmlns="http://www.w3.org/2000/svg" viewBox="0 0 24 24" fill="none" stroke="currentColor" stroke-width="2" stroke-linecap="round" stroke-linejoin="round">
  <!-- Main cerebrum (side view) -->
  <path d="M5 10 C5 6, 7 4, 12 4 C17 4, 19 6, 19 10 C19 14, 17 16, 12 16 C7 16, 5 14, 5 10 Z"/>
  <!-- Cerebrum texture/folds -->
  <path d="M8 8 C9 9, 11 9, 12 9 C13 9, 15 9, 16 8"/>
  <path d="M8 12 C9 13, 11 13, 12 13 C13 13, 15 13, 16 12"/>
  <!-- Cerebellum (side view at back) -->
  <path d="M17 14 C18 15, 19 16, 19 17.5 C19 19, 17.5 20, 16 19.5 C14.5 19, 14 17.5, 15 16 C15.5 15, 16 14.5, 17 14 Z"/>
</svg>
